<svg width="48" height="48" viewBox="0 0 48 48" fill="none" xmlns="http://www.w3.org/2000/svg">
<rect width="48" height="48" rx="10" fill="#333230"/>
<path d="M30.6033 19.3125C30.4045 18.6212 30.1251 18.0104 29.7653 17.4801C29.4054 16.9403 28.9651 16.4858 28.4442 16.1165C27.9329 15.7377 27.3458 15.4489 26.6829 15.25C26.0295 15.0511 25.305 14.9517 24.5096 14.9517C23.0228 14.9517 21.716 15.321 20.5891 16.0597C19.4717 16.7983 18.6005 17.8731 17.9755 19.2841C17.3505 20.6856 17.038 22.3996 17.038 24.4261C17.038 26.4527 17.3458 28.1761 17.9613 29.5966C18.5768 31.017 19.448 32.1013 20.5749 32.8494C21.7018 33.5881 23.0323 33.9574 24.5664 33.9574C25.9585 33.9574 27.1469 33.7112 28.1317 33.2188C29.1261 32.7169 29.8836 32.0114 30.4045 31.1023C30.9348 30.1932 31.1999 29.1184 31.1999 27.8778L32.4499 28.0625H24.9499V23.4318H37.1232V27.0966C37.1232 29.6534 36.5835 31.8504 35.5039 33.6875C34.4244 35.5152 32.9376 36.9261 31.0437 37.9205C29.1497 38.9053 26.9812 39.3977 24.538 39.3977C21.8107 39.3977 19.4149 38.7964 17.3505 37.5938C15.2861 36.3816 13.6763 34.6629 12.521 32.4375C11.3751 30.2027 10.8022 27.5511 10.8022 24.483C10.8022 22.125 11.1431 20.0227 11.8249 18.1761C12.5162 16.3201 13.4821 14.7481 14.7227 13.4602C15.9632 12.1723 17.4073 11.1922 19.055 10.5199C20.7028 9.84754 22.4878 9.51136 24.4102 9.51136C26.0579 9.51136 27.592 9.75284 29.0124 10.2358C30.4329 10.7093 31.6924 11.3816 32.7908 12.2528C33.8988 13.1241 34.8031 14.161 35.5039 15.3636C36.2047 16.5568 36.6545 17.8731 36.8533 19.3125H30.6033Z" fill="white"/>
</svg>
